<svg width="350" height="426" viewBox="0 0 350 426" fill="none" xmlns="http://www.w3.org/2000/svg">
<rect width="350" height="426" fill="#F7F7F7"/>
<path d="M142.443 253.356L142.388 253.37L142.332 253.383C86.2001 266.372 29.3674 236.716 14.6234 184.24C-0.596045 130.073 35.1067 73.3203 92.9833 57.0587L211.129 23.8633L216.424 22.3755L217.912 27.6705L231.68 76.6717L233.168 81.9667L227.873 83.4544L191.826 93.5823L109.727 116.65C83.3759 124.054 68.5813 147.448 74.2145 167.497C79.8465 187.542 104.662 199.812 131.012 192.408L166.877 182.331L167.004 182.296L167.132 182.266L208.925 172.654C208.926 172.653 208.928 172.653 208.929 172.653C265.064 159.66 321.89 189.323 336.634 241.796C351.853 295.964 316.15 352.716 258.274 368.978L145.409 400.689L140.114 402.177L138.626 396.882L124.859 347.881L123.371 342.586L128.666 341.098L241.53 309.387C267.885 301.982 282.676 278.589 277.042 258.539C271.409 238.49 246.6 226.223 220.245 233.628L220.177 233.647L220.109 233.665L142.443 253.356Z" fill="black" stroke="black" stroke-width="11"/>
<rect x="139.518" y="344.035" width="21.2079" height="21.2079" transform="rotate(-15.6937 139.518 344.035)" fill="#F7F7F7"/>
<rect x="111.041" y="394.769" width="21.2079" height="21.2079" transform="rotate(-15.6937 111.041 394.769)" fill="#F7F7F7"/>
<rect x="125.279" y="369.402" width="21.2079" height="21.2079" transform="rotate(-15.6937 125.279 369.402)" fill="#F7F7F7"/>
<rect x="105.236" y="375.313" width="21.2079" height="21.2079" transform="rotate(-15.6937 105.236 375.313)" fill="black"/>
<rect x="90.9976" y="400.68" width="21.2079" height="21.2079" transform="rotate(-15.6937 90.9976 400.68)" fill="black"/>
<rect x="64.6304" y="386.441" width="21.2079" height="21.2079" transform="rotate(-15.6937 64.6304 386.441)" fill="black"/>
<rect x="69.8994" y="352.912" width="21.2079" height="21.2079" transform="rotate(-15.6937 69.8994 352.912)" fill="black"/>
<rect x="217.638" y="71.3901" width="17.9985" height="17.9985" transform="rotate(164.306 217.638 71.3901)" fill="#F7F7F7"/>
<rect x="243.793" y="26.6504" width="19.2841" height="19.2841" transform="rotate(164.306 243.793 26.6504)" fill="#F7F7F7"/>
<rect x="230.444" y="50.4316" width="17.9985" height="19.2841" transform="rotate(164.306 230.444 50.4316)" fill="#F7F7F7"/>
<rect x="250" y="45" width="20.8679" height="19.2841" transform="rotate(164.306 250 45)" fill="black"/>
<rect x="263.359" y="21.4338" width="19.2841" height="19.2841" transform="rotate(164.306 263.359 21.4338)" fill="black"/>
<rect x="285.903" y="35.1306" width="17.9985" height="19.2841" transform="rotate(164.306 285.903 35.1306)" fill="black"/>
<rect x="273.497" y="76.8623" width="20.5697" height="19.2841" transform="rotate(164.306 273.497 76.8623)" fill="black"/>
</svg>
