<svg width="1538" height="450" viewBox="0 0 1538 450" fill="none" xmlns="http://www.w3.org/2000/svg">
<path d="M172.879 265.378L172.823 265.392L172.767 265.405C115.296 278.704 57.1253 248.338 42.0362 194.634C26.4605 139.199 62.9976 81.0988 122.256 64.449L243.349 30.4254L248.644 28.9377L250.132 34.2327L264.243 84.4562L265.731 89.7512L260.436 91.2389L223.491 101.619L139.343 125.262C112.284 132.865 97.0496 156.904 102.85 177.547C108.649 198.186 134.176 210.777 161.234 203.175L197.993 192.846L198.12 192.811L198.248 192.781L241.084 182.929L242.324 188.287L241.091 182.927L241.088 182.928C298.562 169.625 356.727 199.998 371.815 253.7C387.391 309.135 350.854 367.235 291.595 383.885L175.915 416.388L170.62 417.875L169.132 412.58L155.021 362.357L153.534 357.062L158.829 355.574L274.509 323.071C301.571 315.468 316.802 291.43 311.001 270.787C305.201 250.143 279.68 237.555 252.618 245.159L252.55 245.178L252.482 245.196L172.879 265.378Z" fill="url(#paint0_linear_127_2)" stroke="#BF13FB" stroke-width="11"/>
<rect x="166.84" y="364.602" width="21.7369" height="21.7369" transform="rotate(-15.6937 166.84 364.602)" fill="#F7F7F7"/>
<rect x="137.651" y="416.601" width="21.7369" height="21.7369" transform="rotate(-15.6937 137.651 416.601)" fill="#F7F7F7"/>
<rect x="152.245" y="390.601" width="21.7369" height="21.7369" transform="rotate(-15.6937 152.245 390.601)" fill="#F7F7F7"/>
<rect x="130.68" y="396.661" width="21.7369" height="21.7369" transform="rotate(-15.6937 130.68 396.661)" fill="#BF13FB"/>
<rect x="116.086" y="422.66" width="21.7369" height="21.7369" transform="rotate(-15.6937 116.086 422.66)" fill="#BF13FB"/>
<rect x="90.0862" y="408.066" width="21.7369" height="21.7369" transform="rotate(-15.6937 90.0862 408.066)" fill="#BF13FB"/>
<rect x="95.4858" y="373.7" width="21.7369" height="21.7369" transform="rotate(-15.6937 95.4858 373.7)" fill="#2C2C2C"/>
<rect x="254.082" y="75.9307" width="18.4475" height="18.4475" transform="rotate(164.306 254.082 75.9307)" fill="#F7F7F7"/>
<rect x="280.89" y="30.075" width="19.7651" height="19.7651" transform="rotate(164.306 280.89 30.075)" fill="#F7F7F7"/>
<rect x="267.208" y="54.4495" width="18.4475" height="19.7651" transform="rotate(164.306 267.208 54.4495)" fill="#F7F7F7"/>
<rect x="287.505" y="48.7466" width="19.7651" height="19.7651" transform="rotate(164.306 287.505 48.7466)" fill="#A522E2"/>
<rect x="299.918" y="24.7283" width="19.7651" height="19.7651" transform="rotate(164.306 299.918 24.7283)" fill="#A522E2"/>
<rect x="323.024" y="38.7668" width="18.4475" height="19.7651" transform="rotate(164.306 323.024 38.7668)" fill="#A522E2"/>
<rect x="307.234" y="89.739" width="21.0828" height="19.7651" transform="rotate(164.306 307.234 89.739)" fill="#2C2C2C"/>
<path d="M527.241 299.935C515.878 299.935 504.989 298.447 494.574 295.471C484.158 292.36 475.772 288.369 469.414 283.5L480.574 258.746C486.661 263.075 493.83 266.659 502.081 269.5C510.468 272.205 518.922 273.558 527.444 273.558C533.936 273.558 539.144 272.949 543.067 271.732C547.125 270.379 550.101 268.553 551.994 266.253C553.888 263.954 554.835 261.316 554.835 258.34C554.835 254.553 553.347 251.577 550.371 249.413C547.395 247.113 543.473 245.287 538.603 243.934C533.733 242.446 528.323 241.094 522.371 239.876C516.555 238.524 510.67 236.901 504.719 235.007C498.902 233.113 493.559 230.678 488.69 227.702C483.82 224.727 479.83 220.804 476.719 215.934C473.743 211.065 472.255 204.842 472.255 197.267C472.255 189.151 474.419 181.779 478.748 175.151C483.211 168.388 489.839 163.045 498.632 159.122C507.559 155.064 518.719 153.035 532.11 153.035C541.038 153.035 549.83 154.117 558.487 156.282C567.144 158.311 574.787 161.422 581.415 165.615L571.27 190.572C564.642 186.784 558.014 184.011 551.386 182.253C544.758 180.359 538.265 179.412 531.907 179.412C525.55 179.412 520.342 180.156 516.284 181.644C512.226 183.132 509.318 185.093 507.559 187.528C505.801 189.828 504.922 192.533 504.922 195.644C504.922 199.296 506.41 202.272 509.385 204.572C512.361 206.736 516.284 208.495 521.154 209.847C526.023 211.2 531.366 212.553 537.183 213.905C543.134 215.258 549.019 216.813 554.835 218.572C560.787 220.33 566.197 222.698 571.067 225.673C575.937 228.649 579.859 232.572 582.835 237.442C585.946 242.311 587.502 248.466 587.502 255.905C587.502 263.886 585.27 271.191 580.806 277.819C576.342 284.447 569.647 289.79 560.719 293.848C551.927 297.906 540.767 299.935 527.241 299.935ZM665.354 299.732C652.909 299.732 641.75 297.162 631.875 292.022C622.136 286.746 614.426 279.577 608.745 270.514C603.063 261.316 600.223 250.901 600.223 239.268C600.223 227.5 603.063 217.084 608.745 208.021C614.426 198.823 622.136 191.654 631.875 186.514C641.75 181.238 652.909 178.601 665.354 178.601C676.31 178.601 685.914 180.291 694.165 183.673C702.552 186.919 709.721 192.33 715.673 199.905L694.977 218.775C691.054 214.04 686.726 210.524 681.991 208.224C677.257 205.924 672.117 204.775 666.571 204.775C659.943 204.775 654.059 206.263 648.919 209.238C643.779 212.079 639.721 216.069 636.745 221.21C633.904 226.35 632.484 232.369 632.484 239.268C632.484 246.031 633.904 251.983 636.745 257.123C639.721 262.263 643.779 266.321 648.919 269.297C654.059 272.137 659.943 273.558 666.571 273.558C672.117 273.558 677.257 272.408 681.991 270.108C686.726 267.809 691.054 264.292 694.977 259.558L715.673 278.427C709.721 285.867 702.552 291.278 694.165 294.659C685.914 298.041 676.31 299.732 665.354 299.732ZM735.755 297.5V180.832H767.813V297.5H735.755ZM827.171 226.688H883.577V250.021H827.171V226.688ZM830.418 272.949H892.708V297.5H798.765V180.832H890.476V205.383H830.418V272.949ZM916.067 297.5V180.832H942.444L1008.18 259.761H996.212V180.832H1027.66V297.5H1001.28L935.342 218.572H947.516V297.5H916.067ZM1080.84 297.5V205.789H1044.12V180.832H1149.63V205.789H1112.9V297.5H1080.84ZM1194.53 226.688H1250.94V250.021H1194.53V226.688ZM1197.78 272.949H1260.07V297.5H1166.13V180.832H1257.84V205.383H1197.78V272.949ZM1340.04 299.732C1327.59 299.732 1316.43 297.162 1306.56 292.022C1296.82 286.746 1289.11 279.577 1283.43 270.514C1277.75 261.316 1274.9 250.901 1274.9 239.268C1274.9 227.5 1277.75 217.084 1283.43 208.021C1289.11 198.823 1296.82 191.654 1306.56 186.514C1316.43 181.238 1327.59 178.601 1340.04 178.601C1350.99 178.601 1360.6 180.291 1368.85 183.673C1377.23 186.919 1384.4 192.33 1390.36 199.905L1369.66 218.775C1365.74 214.04 1361.41 210.524 1356.67 208.224C1351.94 205.924 1346.8 204.775 1341.25 204.775C1334.63 204.775 1328.74 206.263 1323.6 209.238C1318.46 212.079 1314.4 216.069 1311.43 221.21C1308.59 226.35 1307.17 232.369 1307.17 239.268C1307.17 246.031 1308.59 251.983 1311.43 257.123C1314.4 262.263 1318.46 266.321 1323.6 269.297C1328.74 272.137 1334.63 273.558 1341.25 273.558C1346.8 273.558 1351.94 272.408 1356.67 270.108C1361.41 267.809 1365.74 264.292 1369.66 259.558L1390.36 278.427C1384.4 285.867 1377.23 291.278 1368.85 294.659C1360.6 298.041 1350.99 299.732 1340.04 299.732ZM1410.44 297.5V180.832H1442.5V225.47H1489.97V180.832H1522.03V297.5H1489.97V251.239H1442.5V297.5H1410.44Z" fill="black"/>
<defs>
<linearGradient id="paint0_linear_127_2" x1="256.002" y1="9.69369" x2="156.814" y2="457.045" gradientUnits="userSpaceOnUse">
<stop stop-color="#AB00E7"/>
<stop offset="1" stop-color="#BF13FB"/>
<stop offset="1" stop-color="#DB13FB"/>
</linearGradient>
</defs>
</svg>
