<svg width="404" height="438" viewBox="0 0 404 438" fill="none" xmlns="http://www.w3.org/2000/svg">
<path d="M168.443 258.356L168.388 258.37L168.332 258.383C112.2 271.372 55.3674 241.716 40.6234 189.24C25.404 135.073 61.1067 78.3203 118.983 62.0587L237.129 28.8633L242.424 27.3755L243.912 32.6705L257.68 81.6717L259.168 86.9667L253.873 88.4544L217.826 98.5823L135.727 121.65C109.376 129.054 94.5813 152.448 100.215 172.497C105.847 192.542 130.662 204.812 157.012 197.408L192.877 187.331L193.004 187.296L193.132 187.266L234.925 177.654C234.926 177.653 234.928 177.653 234.929 177.653C291.064 164.66 347.89 194.323 362.634 246.796C377.853 300.964 342.15 357.716 284.274 373.978L171.409 405.689L166.114 407.177L164.626 401.882L150.859 352.881L149.371 347.586L154.666 346.098L267.53 314.387C293.885 306.982 308.676 283.589 303.042 263.539C297.409 243.49 272.6 231.223 246.245 238.628L246.177 238.647L246.109 238.665L168.443 258.356ZM178.737 357.706L169.853 359.392L171.415 368.305L181.103 365.146L178.737 357.706Z" fill="url(#paint0_linear_113_71)" stroke="#BF13FB" stroke-width="11"/>
<rect x="162.518" y="355.035" width="21.2079" height="21.2079" transform="rotate(-15.6937 162.518 355.035)" fill="#2C2C2C"/>
<rect x="148.279" y="380.402" width="21.2079" height="21.2079" transform="rotate(-15.6937 148.279 380.402)" fill="#2C2C2C"/>
<rect x="127.239" y="386.314" width="21.2079" height="21.2079" transform="rotate(-15.6937 127.239 386.314)" fill="#BF13FB"/>
<rect x="113" y="411.68" width="21.2079" height="21.2079" transform="rotate(-15.6937 113 411.68)" fill="#BF13FB"/>
<rect x="87.6328" y="397.442" width="21.2079" height="21.2079" transform="rotate(-15.6937 87.6328 397.442)" fill="#BF13FB"/>
<rect x="92.9019" y="363.912" width="21.2079" height="21.2079" transform="rotate(-15.6937 92.9019 363.912)" fill="#2C2C2C"/>
<rect x="247.638" y="73.3899" width="17.9985" height="17.9985" transform="rotate(164.306 247.638 73.3899)" fill="#2C2C2C"/>
<rect x="260.444" y="52.4314" width="17.9985" height="19.2841" transform="rotate(164.306 260.444 52.4314)" fill="#2C2C2C"/>
<rect x="280.247" y="46.8674" width="19.2841" height="19.2841" transform="rotate(164.306 280.247 46.8674)" fill="#A522E2"/>
<rect x="292.358" y="23.4338" width="19.2841" height="19.2841" transform="rotate(164.306 292.358 23.4338)" fill="#A522E2"/>
<rect x="314.902" y="37.1306" width="17.9985" height="19.2841" transform="rotate(164.306 314.902 37.1306)" fill="#A522E2"/>
<rect x="299.497" y="86.8621" width="20.5697" height="19.2841" transform="rotate(164.306 299.497 86.8621)" fill="#2C2C2C"/>
<defs>
<linearGradient id="paint0_linear_113_71" x1="249.51" y1="8.76498" x2="152.737" y2="445.228" gradientUnits="userSpaceOnUse">
<stop stop-color="#AB00E7"/>
<stop offset="1" stop-color="#BF13FB"/>
<stop offset="1" stop-color="#DB13FB"/>
</linearGradient>
</defs>
</svg>
